<svg viewBox="0 0 569.8749338030191 155.971969742734" height="108.25188091878718" width="395.52"><g transform="matrix(1,0,0,1,0,21.556183951419825)"><svg viewBox="0 0 395.52 112.85960183989434" height="112.85960183989434" width="395.52"><g id="textblocktransform"><svg viewBox="0 0 395.52 112.85960183989434" height="112.85960183989434" width="395.52" id="textblock"><g><svg viewBox="0 0 395.52 77.86883910386965" height="77.86883910386965" width="395.52"><g transform="matrix(1,0,0,1,0,0)"><svg width="395.52" viewBox="1 -38.75 220.9199981689453 43.5" height="77.86883910386965" data-palette-color="#ffffff"><path d="M3.55 4.75Q2.75 4.75 2.25 4.35 1.75 3.95 1.75 3.2L1.75 3.2Q1.75 2.65 2.35 2.05 2.95 1.45 3.7 1.15L3.7 1.15Q4.45 0.2 5.08-1.8 5.7-3.8 5.7-5.9L5.7-5.9 5.75-8.35Q5.8-9.4 5.8-10.75L5.8-10.75 5.75-12.8 5.5-17.85Q5.15-27.75 4.4-35.3L4.4-35.3Q4.25-35.2 3.75-35.15L3.75-35.15Q2.95-34.9 2.25-34.9L2.25-34.9Q1.75-34.9 1.38-35.27 1-35.65 1-36.15L1-36.15Q1-37.9 6.95-37.9L6.95-37.9 7.6-37.9Q8.3-37.9 8.7-37.83 9.1-37.75 9.45-37.45L9.45-37.45Q9.85-37.15 9.85-36.55L9.85-36.55Q9.85-35.25 7.75-35.25L7.75-35.25Q7.75-35.25 7.73-35.25 7.7-35.25 7.7-35.3L7.7-35.3 7.6-35.3 6.95-35.3 6.95-34.9Q6.95-33.6 7.25-31.05L7.25-31.05Q7.5-28.15 7.5-27.15L7.5-27.15Q7.5-23.6 8-17.45L8-17.45Q8.4-11.65 8.4-7.7L8.4-7.7 8.4-5.7 8.4-3.7Q8.4-0.7 7.13 1.63 5.85 3.95 3.55 4.75L3.55 4.75ZM26.3 0.45Q25.15 0.45 24.6 0.1 24.05-0.25 24.05-1.2L24.05-1.2Q24.05-2.7 23.55-6.3L23.55-6.3 23.35-7.35 18.4-8.1Q18.1-6.95 17.55-3.45L17.55-3.45Q17.25-1 16.6-0.2L16.6-0.2Q16.25 0.25 15.6 0.25L15.6 0.25Q15 0.25 14.5-0.13 14-0.5 14-1.05L14-1.05 14.1-1.3 14.15-1.5Q17.45-14.35 19.15-26.85L19.15-26.85Q19.15-27.05 19.2-27.53 19.25-28 19.3-28.9L19.3-28.9Q19.45-30.75 19.62-31.85 19.8-32.95 20.2-33.5L20.2-33.5 21.9-33.5Q22.6-33.5 23.1-33.18 23.6-32.85 23.6-32.25L23.6-32.25Q23.6-28.45 24.65-20.95L24.65-20.95Q25.65-13.25 25.65-10.15L25.65-10.15Q25.65-9.85 25.9-8.6L25.9-8.6Q26.15-7.45 26.15-7.1L26.15-7.1Q26.15-6.75 26.65-4.1L26.65-4.1Q27.1-1.7 27.1-1L27.1-1 27.1-0.95Q27.1 0.15 26.3 0.45L26.3 0.45ZM23-9.15Q22.85-9.9 22.85-11L22.85-11Q22.85-15.5 22.05-22.5L22.05-22.5 21.55-27.7Q19.4-15.95 18.6-9.95L18.6-9.95Q19.35-9.45 23-9.15L23-9.15ZM51.55 2.6Q50 2.6 50-0.5L50-0.5 50-3.7 50-6.9Q50-9.4 49.65-13.45L49.65-13.45Q49.25-18 49.25-19.7L49.25-19.7 49.34-22.8Q49.45-24.15 49.45-25.85L49.45-25.85Q49.25-25.2 47.8-18.95L47.8-18.95Q46.34-12.9 44.8-7.75L44.8-7.75Q43.3-2.8 42.34-2.8L42.34-2.8Q41.4-2.8 40.82-3.38 40.25-3.95 40.25-4.95L40.25-4.95Q40.25-7.15 38.47-14.3 36.7-21.45 35.25-26L35.25-26 34.95-20.35Q34.55-13.2 34.4-8.45L34.4-8.45Q34.3-3.85 34.3-2.15L34.3-2.15Q34.3-1.75 34.34-1.4L34.34-1.4 34.34-0.7Q34.34 0.15 34 0.58 33.65 1 32.7 1L32.7 1Q32.2 1 31.75 0.63 31.3 0.25 31.3-0.2L31.3-0.2Q31.3-5.3 32.05-15.5L32.05-15.5Q32.8-25.7 32.8-30.8L32.8-30.8Q32.5-31.25 32.5-31.75L32.5-31.75Q32.5-32.35 33.07-32.68 33.65-33 34.45-33L34.45-33Q35.09-33 36.84-28.3 38.59-23.6 40.34-17.65 42.09-11.7 42.59-9.05L42.59-9.05Q43-10.4 43.25-11.55L43.25-11.55 43.55-12.75Q45.15-19.75 46.75-25.4L46.75-25.4Q47.7-28.85 48.59-30.8L48.59-30.8Q49.5-32.9 50.25-32.9L50.25-32.9Q50.95-32.9 51.52-32.52 52.09-32.15 52.09-31.55L52.09-31.55Q52.09-27.95 52.4-20.75L52.4-20.75Q52.75-14.05 52.75-10.35L52.75-10.35 52.7-7.7 52.59-5.05Q52.59-4.45 52.75-3.25L52.75-3.25 52.9-1.5Q52.95-1.05 52.97-0.8 53-0.55 53-0.5L53-0.5Q53.25 0.15 53.25 0.45L53.25 0.45Q53.25 1.3 52.75 1.95 52.25 2.6 51.55 2.6L51.55 2.6ZM61.94-0.05Q57.59-0.05 57.59-1.55L57.59-1.55Q57.59-2.75 59.14-2.75L59.14-2.75 59.69-2.75 60.19-2.7Q60.59-2.7 60.74-2.95 60.89-3.2 60.89-3.85L60.89-3.85Q60.89-4.7 60.79-6.5L60.79-6.5Q60.64-7.7 60.44-10.8L60.44-10.8Q59.99-18.45 59.99-22.35L59.99-22.35Q59.99-23.75 60.04-24.9L60.04-24.9 60.09-27.45Q60.09-29.1 59.94-30.2L59.94-30.2Q59.14-30 58.79-30L58.79-30Q57.59-30 57.59-31.2L57.59-31.2Q57.59-31.8 58.34-32.25 59.09-32.7 60.24-32.9L60.24-32.9Q62.24-33.3 63.79-33.3L63.79-33.3Q64.39-33.3 64.82-32.88 65.24-32.45 65.24-31.9L65.24-31.9Q65.24-31.35 64.92-30.95 64.59-30.55 64.09-30.55L64.09-30.55Q63.79-30.55 63.59-30.6L63.59-30.6 63.19-30.6Q62.69-30.6 62.47-30.38 62.24-30.15 62.24-29.55L62.24-29.55Q62.24-24.7 62.84-14.95L62.84-14.95Q62.94-13.15 63.24-9.65L63.24-9.65Q63.49-7.35 63.49-4.95L63.49-4.95 63.49-3.05Q63.79-3.1 64.49-3.1L64.49-3.1Q66.59-3.1 66.59-1.35L66.59-1.35 66.59-1.05 65.34-0.2Q65.29-0.2 65.02-0.18 64.74-0.15 63.99-0.15L63.99-0.15Q62.39-0.05 61.94-0.05L61.94-0.05ZM73.04 0.65Q72.39 0.65 71.87 0.2 71.34-0.25 71.29-0.9L71.29-0.9 71.29-2.2 71.29-3.2Q71.24-3.65 71.24-4.25L71.24-4.25Q71.24-5.3 71.09-7.45L71.09-7.45 70.99-10.65Q70.99-13.1 71.14-17.95L71.14-17.95Q71.34-22.3 71.34-25.25L71.34-25.25Q71.34-25.95 71.19-27.35L71.19-27.35Q71.04-28.8 71.04-29.45L71.04-29.45Q71.04-33 73.14-33L73.14-33Q74.79-33 76.97-32.35 79.14-31.7 79.14-30.8L79.14-30.8Q79.14-30.3 78.72-29.88 78.29-29.45 77.69-29.2L77.69-29.2Q75.59-29.95 73.89-30.2L73.89-30.2Q73.94-29.45 73.94-28.05L73.94-28.05Q73.94-26.05 73.89-24.45L73.89-24.45Q73.74-22.05 73.74-20.85L73.74-20.85 73.89-20.05 74.69-20.1Q75.09-20.15 75.69-20.15L75.69-20.15Q78.09-20.15 78.09-18.75L78.09-18.75Q78.09-18.2 77.64-17.82 77.19-17.45 76.49-17.45L76.49-17.45Q75.59-17.45 75.09-17.55L75.09-17.55 73.84-17.55Q73.94-16.25 73.94-13.75L73.94-13.75Q73.94-11.25 73.89-9.25L73.89-9.25Q73.74-6.2 73.74-4.7L73.74-4.7Q73.74-1.9 73.84-1.9L73.84-1.9 75.49-1.95Q76.34-2 77.54-2L77.54-2Q79.44-2 79.44-0.8L79.44-0.8Q79.44-0.1 78.82 0.28 78.19 0.65 77.29 0.65L77.29 0.65 73.04 0.65ZM96.89 1.1Q95.09 1.1 93.79 0.45L93.79 0.45Q92.99 0 92.99-0.6L92.99-0.6Q92.99-1.2 93.29-1.58 93.59-1.95 94.14-1.95L94.14-1.95Q94.64-1.95 95.59-1.55L95.59-1.55Q96.64-1.15 96.89-1.15L96.89-1.15Q97.84-1.15 98.61-1.98 99.39-2.8 99.84-4.15L99.84-4.15Q100.74-6.65 100.74-8.65L100.74-8.65Q100.74-10.8 100.06-13.18 99.39-15.55 98.24-17.8L98.24-17.8 97.44-19.4Q96.19-21.9 95.51-23.35 94.84-24.8 94.34-26.5L94.34-26.5Q93.59-28.9 93.59-31.15L93.59-31.15Q93.59-32.95 94.21-34.55 94.84-36.15 96.09-37.25L96.09-37.25Q97.34-38.45 99.19-38.45L99.19-38.45Q100.09-38.45 100.94-37.93 101.79-37.4 102.14-36.6L102.14-36.6 101.29-35.55Q99.99-35.55 99.34-36.05L99.34-36.05Q98.44-35.95 97.76-35.18 97.09-34.4 96.74-33.4L96.74-33.4Q96.44-32.45 96.44-31.5L96.44-31.5Q96.44-29.6 96.96-27.63 97.49-25.65 98.34-23.9L98.34-23.9 101.84-16.9Q102.69-15.1 103.19-12.85 103.69-10.6 103.69-8.35L103.69-8.35Q103.69-5.05 102.09-2.15L102.09-2.15Q101.24-0.65 99.89 0.23 98.54 1.1 96.89 1.1L96.89 1.1ZM132.93 1.3Q132.43 1.3 132.13 0.8 131.83 0.3 131.83-0.65L131.83-0.65 131.78-8.05Q131.73-9 131.73-11.2L131.73-11.2Q131.63-15.85 131.63-21.7L131.63-21.7 131.63-24.25Q131.18-21.85 130.08-17.5L130.08-17.5Q128.98-13 128.53-10.1L128.53-10.1 128.53-9.8 128.38-8.85Q128.28-7.75 127.88-6.6L127.88-6.6Q127.38-5.4 126.33-5.4L126.33-5.4Q124.53-5.4 124.53-10.1L124.53-10.1Q124.53-12.7 124.01-15.68 123.48-18.65 122.33-23L122.33-23 120.83-28.6 120.73-22.6Q120.73-19.9 120.98-12.3L120.98-12.3 121.08-8.9 121.18-2.05Q121.18-1 120.43-0.15L120.43-0.15Q119.18-0.15 118.71-0.93 118.23-1.7 118.23-3.2L118.23-3.2 118.33-7.3Q118.48-10 118.48-11.35L118.48-11.35 118.38-21 118.28-30.7Q118.28-32.85 118.38-37.15L118.38-37.15 119.73-37.95Q120.13-37.9 120.53-37.38 120.93-36.85 121.43-35.7L121.43-35.7Q122.68-32.6 124.68-23.3L124.68-23.3Q124.98-22 125.08-21.15L125.08-21.15Q125.68-18.25 125.93-16.75L125.93-16.75 126.68-12.9 127.03-14.55 127.98-18.65Q128.78-22.25 129.31-24.95 129.83-27.65 130.33-30.8L130.33-30.8Q130.88-34.55 131.03-37.05L131.03-37.05 131.03-37.35Q131.13-38 131.63-38.38 132.13-38.75 132.83-38.75L132.83-38.75Q133.28-38.75 133.63-38.35 133.98-37.95 133.98-37.5L133.98-37.5Q133.98-31.5 134.43-19.55L134.43-19.55Q134.68-13.7 134.78-8.1L134.78-8.1Q134.88-5.55 134.88-1.65L134.88-1.65Q134.88-0.5 134.28 0.4 133.68 1.3 132.93 1.3L132.93 1.3ZM151.08 0.45Q149.93 0.45 149.38 0.1 148.83-0.25 148.83-1.2L148.83-1.2Q148.83-2.7 148.33-6.3L148.33-6.3 148.13-7.35 143.18-8.1Q142.88-6.95 142.33-3.45L142.33-3.45Q142.03-1 141.38-0.2L141.38-0.2Q141.03 0.25 140.38 0.25L140.38 0.25Q139.78 0.25 139.28-0.13 138.78-0.5 138.78-1.05L138.78-1.05 138.88-1.3 138.93-1.5Q142.23-14.35 143.93-26.85L143.93-26.85Q143.93-27.05 143.98-27.53 144.03-28 144.08-28.9L144.08-28.9Q144.23-30.75 144.4-31.85 144.58-32.95 144.98-33.5L144.98-33.5 146.68-33.5Q147.38-33.5 147.88-33.18 148.38-32.85 148.38-32.25L148.38-32.25Q148.38-28.45 149.43-20.95L149.43-20.95Q150.43-13.25 150.43-10.15L150.43-10.15Q150.43-9.85 150.68-8.6L150.68-8.6Q150.93-7.45 150.93-7.1L150.93-7.1Q150.93-6.75 151.43-4.1L151.43-4.1Q151.88-1.7 151.88-1L151.88-1 151.88-0.95Q151.88 0.15 151.08 0.45L151.08 0.45ZM147.78-9.15Q147.63-9.9 147.63-11L147.63-11Q147.63-15.5 146.83-22.5L146.83-22.5 146.33-27.7Q144.18-15.95 143.38-9.95L143.38-9.95Q144.13-9.45 147.78-9.15L147.78-9.15ZM162.88 0.7Q161.78 0.7 160.55 0.38 159.33 0.05 158.68-0.35L158.68-0.35Q155.33-2.5 155.33-12.1L155.33-12.1 155.33-13.45 155.33-15 155.33-16.2Q155.33-18.2 155.38-19.78 155.43-21.35 155.58-23.2L155.58-23.2Q155.73-25.15 156.03-26.38 156.33-27.6 157.03-29.15L157.03-29.15Q157.63-30.6 158.5-31.4 159.38-32.2 160.78-32.75L160.78-32.75Q162.03-33.3 163.88-33.3L163.88-33.3Q164.63-33.3 165.03-32.95 165.43-32.6 165.43-32.05L165.43-32.05Q165.43-31.55 165.1-31.15 164.78-30.75 164.33-30.7L164.33-30.7 161.98-30.7Q160.98-30.7 160.23-29.45 159.48-28.2 159.18-26.2L159.18-26.2Q158.53-22.5 158.53-20.2L158.53-20.2 158.53-19.95 158.43-15.15Q158.33-13 158.33-10.3L158.33-10.3Q158.33-8.4 158.48-7.2L158.48-7.2Q158.73-5.4 159.33-4.2L159.33-4.2Q159.93-2.85 161.38-2.25L161.38-2.25Q162.13-1.95 163.03-1.95L163.03-1.95Q163.58-1.95 164.13-2.35L164.13-2.35Q164.78-2.35 165.2-2.08 165.63-1.8 165.63-1.25L165.63-1.25Q165.63 0.7 162.88 0.7L162.88 0.7ZM178.92 0Q177.22 0 177.22-8.25L177.22-8.25 177.27-11.1 177.32-13.4 177.32-13.55 177.32-14.05Q177.37-14.45 177.37-15L177.37-15Q177.37-15.1 177.22-15.25L177.22-15.25Q177.07-15.4 177.07-15.5L177.07-15.5 177.07-15.55Q176.82-15.45 176.17-15.45L176.17-15.45Q175.52-15.45 174.57-15.65L174.57-15.65Q174.27-15.7 172.97-15.9L172.97-15.9 172.97-10.15Q172.97-8.85 173.12-6.05L173.12-6.05Q173.27-3.3 173.27-1.95L173.27-1.95Q173.27-1.2 172.87-0.65 172.47-0.1 171.82-0.1L171.82-0.1Q170.87-0.1 170.47-1.95L170.47-1.95Q170.07-3.85 170.07-6.9L170.07-6.9 170.17-10.95Q170.22-12.65 170.22-14.55L170.22-14.55 170.22-15.4 170.22-16.1Q170.22-16.9 170.17-17.15L170.17-17.15 170.17-17.4 170.32-20.3Q170.32-22.2 170.17-25.95L170.17-25.95Q170.02-29.7 170.02-31.6L170.02-31.6Q170.02-32.2 170.42-32.65 170.82-33.1 171.42-33.1L171.42-33.1Q173.02-33.1 173.02-30.1L173.02-30.1 172.92-23.9Q172.82-21.1 172.82-17.65L172.82-17.65Q173.57-17.4 175.52-17.4L175.52-17.4 177.37-17.4Q177.47-17.7 177.47-18L177.47-18Q177.47-20.4 177.17-25.1L177.17-25.1Q176.82-29.5 176.82-32.25L176.82-32.25Q176.82-32.8 177.25-33.18 177.67-33.55 178.27-33.55L178.27-33.55Q178.62-33.55 179.27-33.3L179.27-33.3 179.72-33.1Q179.72-26 180.22-14.15L180.22-14.15 180.67-1.5Q180.67-0.8 180.15-0.4 179.62 0 178.92 0L178.92 0ZM192.52 0.95Q191.22 0.95 190.12 0.13 189.02-0.7 188.32-2.1L188.32-2.1Q186.87-5.15 186.52-8.75L186.52-8.75Q186.07-12.15 186.07-15.3L186.07-15.3Q186.07-15.9 186.12-16.3L186.12-16.3 186.12-17.2Q186.12-17.45 186.07-17.45L186.07-17.45 186.07-18.35 186.12-21.85Q186.17-23.45 186.52-26.95L186.52-26.95Q186.77-29.35 187.67-31.6L187.67-31.6Q188.02-32.6 188.57-33.13 189.12-33.65 189.82-33.65L189.82-33.65Q191.82-33.65 193.42-32.93 195.02-32.2 196.12-30.9L196.12-30.9Q197.12-29.65 197.82-27.83 198.52-26 198.82-23.95L198.82-23.95Q199.12-21.85 199.12-19.5L199.12-19.5 199.12-19.1Q199.12-17.55 199.17-16.3L199.17-16.3 199.22-13.45Q199.22 0.95 192.52 0.95L192.52 0.95ZM192.32-1.15Q193.22-1.15 193.97-1.88 194.72-2.6 195.12-3.85L195.12-3.85Q196.07-6.4 196.27-9.35L196.27-9.35Q196.52-11.9 196.52-13.75L196.52-13.75Q196.52-16 196.17-19.65L196.17-19.65Q195.87-23.5 195.87-25.4L195.87-25.4 195.87-26.3Q195.77-28.2 194.6-29.6 193.42-31 191.72-31L191.72-31Q190.02-31 189.47-29.05L189.47-29.05Q188.97-27.5 188.97-25.05L188.97-25.05Q188.97-24.1 189.02-23.45L189.02-23.45 189.02-22.1 188.92-19.8Q188.82-18.75 188.82-17.5L188.82-17.5Q188.82-14.8 188.97-12.15L188.97-12.15Q189.17-8.4 189.97-4.85L189.97-4.85Q190.77-1.15 192.32-1.15L192.32-1.15ZM218.32 0.15Q217.72 0.15 217.42-0.18 217.12-0.5 216.97-1.3L216.97-1.3 216.67-2.25 216.67-2.35 216.67-2.5Q216.67-4.15 213.24-13.75 209.82-23.35 207.87-27.95L207.87-27.95 207.87-2.8 208.07-2.45Q208.12-2.35 208.27-2.1 208.42-1.85 208.42-1.6L208.42-1.6Q208.42-0.95 207.97-0.5 207.52-0.05 206.87-0.05L206.87-0.05Q205.27-0.05 205.27-3.1L205.27-3.1 205.22-11.65Q205.17-15.5 205.17-20.25L205.17-20.25Q205.17-21.85 205.32-24.9L205.32-24.9Q205.47-28.05 205.47-29.55L205.47-29.55Q205.47-31.9 207.27-33.25L207.27-33.25 207.27-32.95Q207.57-33.05 207.67-33.05L207.67-33.05Q208.82-33.05 210.57-29.05L210.57-29.05Q211.97-25.85 213.09-22.3 214.22-18.75 216.07-12.2L216.07-12.2 216.57-10.4Q217.72-6.35 218.32-4.6L218.32-4.6Q219.32-15.35 219.32-30L219.32-30 219.32-30.65Q219.27-30.95 219.27-31.3L219.27-31.3Q219.27-32.8 220.47-32.8L220.47-32.8Q221.17-32.8 221.54-32.25 221.92-31.7 221.92-30.85L221.92-30.85 221.92-27.1Q221.82-19.4 221.32-10.4 220.82-1.4 220.12-0.25L220.12-0.25Q218.67 0.15 218.32 0.15L218.32 0.15Z" opacity="1" transform="matrix(1,0,0,1,0,0)" fill="#ffffff" class="wordmark-text-0" data-fill-palette-color="primary" id="text-0"></path></svg></g></svg></g><g transform="matrix(1,0,0,1,163.310208,96.25180316415478)"><svg viewBox="0 0 232.209792 16.60779867573956" height="16.60779867573956" width="232.209792"><g transform="matrix(1,0,0,1,0,0)"><svg width="232.209792" viewBox="1.9800000190734863 -38.09000015258789 681.6199951171875 48.76000213623047" height="16.60779867573956" data-palette-color="#ff6699"><path d="M16.14 0L1.98 0 1.98-3.08 5.96-3.76 5.96-31.76 1.98-32.45 1.98-35.55 5.96-35.55 15.89-35.55Q20.61-35.55 24.11-33.3 27.61-31.05 29.57-27.12 31.52-23.19 31.52-18.14L31.52-18.14 31.52-17.38Q31.52-12.45 29.64-8.51 27.76-4.57 24.3-2.28 20.85 0 16.14 0L16.14 0ZM10.77-31.76L10.77-3.76 15.89-3.76Q19.26-3.76 21.68-5.6 24.1-7.45 25.4-10.53 26.71-13.62 26.71-17.38L26.71-17.38 26.71-18.19Q26.71-22.07 25.4-25.13 24.1-28.2 21.68-29.98 19.26-31.76 15.89-31.76L15.89-31.76 10.77-31.76ZM46.95 0.51L46.95 0.51Q43.28 0.51 40.57-1.16 37.86-2.83 36.39-5.81 34.91-8.79 34.91-12.7L34.91-12.7 34.91-13.77Q34.91-17.53 36.46-20.5 38.01-23.46 40.59-25.18 43.16-26.9 46.21-26.9L46.21-26.9Q49.78-26.9 52.18-25.44 54.59-23.97 55.81-21.33 57.03-18.68 57.03-15.09L57.03-15.09 57.03-12.08 39.89-12.08 39.82-11.96Q39.87-9.42 40.71-7.46 41.55-5.49 43.14-4.37 44.72-3.25 46.95-3.25L46.95-3.25Q49.39-3.25 51.23-3.94 53.07-4.64 54.42-5.86L54.42-5.86 56.3-2.73Q54.88-1.37 52.55-0.43 50.22 0.51 46.95 0.51ZM39.99-15.97L40.04-15.84 52.22-15.84 52.22-16.48Q52.22-18.38 51.55-19.89 50.88-21.39 49.55-22.25 48.22-23.12 46.21-23.12L46.21-23.12Q44.6-23.12 43.28-22.18 41.97-21.24 41.11-19.63 40.26-18.02 39.99-15.97L39.99-15.97ZM75.39 0L71.16 0 61.76-22.95 59.03-23.32 59.03-26.42 70.11-26.42 70.11-23.32 66.67-22.83 72.53-7.79 73.21-5.66 73.36-5.66 74.14-7.79 79.58-22.83 76.04-23.32 76.04-26.42 87.1-26.42 87.1-23.32 84.32-22.95 75.39 0ZM100.97 0.51L100.97 0.51Q97.31 0.51 94.66-1.21 92.01-2.93 90.57-5.97 89.13-9.01 89.13-12.92L89.13-12.92 89.13-13.45Q89.13-17.36 90.57-20.4 92.01-23.44 94.66-25.17 97.31-26.9 100.92-26.9L100.92-26.9Q104.58-26.9 107.23-25.17 109.88-23.44 111.32-20.41 112.76-17.38 112.76-13.45L112.76-13.45 112.76-12.92Q112.76-8.98 111.32-5.94 109.88-2.91 107.24-1.2 104.61 0.51 100.97 0.51ZM100.97-3.25L100.97-3.25Q103.26-3.25 104.81-4.5 106.36-5.76 107.16-7.95 107.95-10.13 107.95-12.92L107.95-12.92 107.95-13.45Q107.95-16.24 107.16-18.42 106.36-20.61 104.8-21.86 103.24-23.12 100.92-23.12L100.92-23.12Q98.63-23.12 97.06-21.86 95.5-20.61 94.72-18.42 93.94-16.24 93.94-13.45L93.94-13.45 93.94-12.92Q93.94-10.13 94.72-7.95 95.5-5.76 97.08-4.5 98.65-3.25 100.97-3.25ZM128.48 10.16L115.74 10.16 115.74 7.06 119.47 6.37 119.47-22.63 115.49-23.32 115.49-26.42 123.6-26.42 124.04-23.19Q125.36-25 127.25-25.95 129.14-26.9 131.63-26.9L131.63-26.9Q134.9-26.9 137.22-25.13 139.54-23.36 140.76-20.18 141.98-16.99 141.98-12.72L141.98-12.72 141.98-12.21Q141.98-8.4 140.75-5.54 139.52-2.69 137.22-1.09 134.93 0.51 131.7 0.51L131.7 0.51Q129.26 0.51 127.42-0.31 125.58-1.12 124.28-2.73L124.28-2.73 124.28 6.37 128.48 7.06 128.48 10.16ZM130.21-3.25L130.21-3.25Q133.63-3.25 135.39-5.74 137.15-8.23 137.15-12.21L137.15-12.21 137.15-12.72Q137.15-15.75 136.37-18.05 135.59-20.36 134.04-21.68 132.49-23 130.17-23L130.17-23Q128.12-23 126.65-22.07 125.19-21.14 124.28-19.53L124.28-19.53 124.28-6.67Q125.19-5.03 126.64-4.14 128.09-3.25 130.21-3.25ZM156.38 0.51L156.38 0.51Q153.72 0.51 151.4-0.02 149.08-0.56 146.47-1.68L146.47-1.68 146.42-7.96 150.06-7.96 150.96-4.17Q152.33-3.61 153.61-3.36 154.89-3.1 156.38-3.1L156.38-3.1Q159.31-3.1 160.58-4.22 161.85-5.35 161.85-7.01L161.85-7.01Q161.85-8.57 160.57-9.66 159.29-10.74 155.92-11.5L155.92-11.5Q151.13-12.6 148.88-14.44 146.62-16.28 146.62-19.36L146.62-19.36Q146.62-21.51 147.86-23.21 149.11-24.9 151.33-25.9 153.55-26.9 156.51-26.9L156.51-26.9Q159.51-26.9 161.65-26.22 163.78-25.54 165.37-24.39L165.37-24.39 165.61-18.36 162-18.36 161.22-21.88Q160.36-22.51 159.19-22.85 158.02-23.19 156.51-23.19L156.51-23.19Q154.26-23.19 152.86-22.14 151.45-21.09 151.45-19.51L151.45-19.51Q151.45-18.58 151.86-17.9 152.26-17.21 153.41-16.66 154.55-16.11 156.77-15.58L156.77-15.58Q162.29-14.28 164.48-12.28 166.66-10.28 166.66-7.35L166.66-7.35Q166.66-4 164.18-1.75 161.71 0.51 156.38 0.51ZM210.31 0L183.23 0 183.23-3.08 187.21-3.76 187.21-31.76 183.23-32.45 183.23-35.55 209.55-35.55 209.55-27 205.7-27 205.16-31.84 192.02-31.84 192.02-20.26 205.13-20.26 205.13-16.48 192.02-16.48 192.02-3.61 205.94-3.61 206.48-8.52 210.31-8.52 210.31 0ZM227.71 0L214.95 0 214.95-3.08 218.93-3.76 218.93-22.63 214.95-23.32 214.95-26.42 223.22-26.42 223.56-22.49Q224.88-24.58 226.87-25.74 228.86-26.9 231.4-26.9L231.4-26.9Q235.67-26.9 238.02-24.4 240.36-21.9 240.36-16.67L240.36-16.67 240.36-3.76 244.34-3.08 244.34 0 231.57 0 231.57-3.08 235.55-3.76 235.55-16.58Q235.55-20.07 234.17-21.53 232.79-23 229.96-23L229.96-23Q227.89-23 226.29-22 224.69-21 223.73-19.26L223.73-19.26 223.73-3.76 227.71-3.08 227.71 0ZM259.08 10.67L259.08 10.67Q257.18 10.67 254.96 10.14 252.74 9.62 251.05 8.72L251.05 8.72 252.3 4.98Q253.64 5.69 255.47 6.15 257.3 6.62 259.04 6.62L259.04 6.62Q262.26 6.62 263.76 4.81 265.26 3 265.26-0.34L265.26-0.34 265.26-2.86Q263.97-1.2 262.16-0.34 260.35 0.51 258.01 0.51L258.01 0.51Q254.79 0.51 252.44-1.09 250.1-2.69 248.84-5.55 247.58-8.42 247.58-12.21L247.58-12.21 247.58-12.72Q247.58-16.97 248.84-20.17 250.1-23.36 252.44-25.13 254.79-26.9 258.06-26.9L258.06-26.9Q260.55-26.9 262.43-25.93 264.31-24.95 265.58-23.1L265.58-23.1 266.02-26.42 270.07-26.42 270.07-0.34Q270.07 3.08 268.79 5.54 267.51 8.01 265.05 9.34 262.6 10.67 259.08 10.67ZM259.21-3.39L259.21-3.39Q261.38-3.39 262.84-4.38 264.31-5.37 265.26-7.18L265.26-7.18 265.26-19.34Q264.33-21.02 262.84-22.01 261.35-23 259.25-23L259.25-23Q256.96-23 255.43-21.68 253.91-20.36 253.15-18.05 252.39-15.75 252.39-12.72L252.39-12.72 252.39-12.21Q252.39-8.23 254.08-5.81 255.76-3.39 259.21-3.39ZM273.34-23.34L269.34-22.49 267.46-26.42 273.34-26.42 273.34-23.34ZM288.33 0L275.56 0 275.56-3.08 279.54-3.76 279.54-22.63 275.56-23.32 275.56-26.42 284.35-26.42 284.35-3.76 288.33-3.08 288.33 0ZM284.35-32.93L279.3-32.93 279.3-38.09 284.35-38.09 284.35-32.93ZM304.42 0L291.65 0 291.65-3.08 295.63-3.76 295.63-22.63 291.65-23.32 291.65-26.42 299.92-26.42 300.27-22.49Q301.58-24.58 303.57-25.74 305.56-26.9 308.1-26.9L308.1-26.9Q312.37-26.9 314.72-24.4 317.06-21.9 317.06-16.67L317.06-16.67 317.06-3.76 321.04-3.08 321.04 0 308.27 0 308.27-3.08 312.25-3.76 312.25-16.58Q312.25-20.07 310.87-21.53 309.49-23 306.66-23L306.66-23Q304.59-23 302.99-22 301.39-21 300.44-19.26L300.44-19.26 300.44-3.76 304.42-3.08 304.42 0ZM336.1 0.51L336.1 0.51Q332.44 0.51 329.73-1.16 327.02-2.83 325.54-5.81 324.07-8.79 324.07-12.7L324.07-12.7 324.07-13.77Q324.07-17.53 325.62-20.5 327.17-23.46 329.74-25.18 332.32-26.9 335.37-26.9L335.37-26.9Q338.93-26.9 341.34-25.44 343.74-23.97 344.97-21.33 346.19-18.68 346.19-15.09L346.19-15.09 346.19-12.08 329.05-12.08 328.97-11.96Q329.02-9.42 329.87-7.46 330.71-5.49 332.29-4.37 333.88-3.25 336.1-3.25L336.1-3.25Q338.54-3.25 340.39-3.94 342.23-4.64 343.57-5.86L343.57-5.86 345.45-2.73Q344.04-1.37 341.71-0.43 339.37 0.51 336.1 0.51ZM329.14-15.97L329.19-15.84 341.38-15.84 341.38-16.48Q341.38-18.38 340.7-19.89 340.03-21.39 338.7-22.25 337.37-23.12 335.37-23.12L335.37-23.12Q333.76-23.12 332.44-22.18 331.12-21.24 330.27-19.63 329.41-18.02 329.14-15.97L329.14-15.97ZM362.69 0.51L362.69 0.51Q359.03 0.51 356.32-1.16 353.61-2.83 352.13-5.81 350.65-8.79 350.65-12.7L350.65-12.7 350.65-13.77Q350.65-17.53 352.2-20.5 353.75-23.46 356.33-25.18 358.9-26.9 361.95-26.9L361.95-26.9Q365.52-26.9 367.92-25.44 370.33-23.97 371.55-21.33 372.77-18.68 372.77-15.09L372.77-15.09 372.77-12.08 355.63-12.08 355.56-11.96Q355.61-9.42 356.45-7.46 357.29-5.49 358.88-4.37 360.47-3.25 362.69-3.25L362.69-3.25Q365.13-3.25 366.97-3.94 368.82-4.64 370.16-5.86L370.16-5.86 372.04-2.73Q370.62-1.37 368.29-0.43 365.96 0.51 362.69 0.51ZM355.73-15.97L355.78-15.84 367.96-15.84 367.96-16.48Q367.96-18.38 367.29-19.89 366.62-21.39 365.29-22.25 363.96-23.12 361.95-23.12L361.95-23.12Q360.34-23.12 359.03-22.18 357.71-21.24 356.85-19.63 356-18.02 355.73-15.97L355.73-15.97ZM389.22 0L376.45 0 376.45-3.08 380.43-3.76 380.43-22.63 376.45-23.32 376.45-26.42 384.73-26.42 385.15-23.05 385.19-22.58Q386.32-24.61 387.97-25.76 389.61-26.9 391.74-26.9L391.74-26.9Q392.49-26.9 393.29-26.77 394.08-26.64 394.42-26.51L394.42-26.51 393.79-22.05 390.44-22.24Q388.54-22.36 387.25-21.37 385.95-20.39 385.24-18.73L385.24-18.73 385.24-3.76 389.22-3.08 389.22 0ZM421.35 0.51L421.35 0.51Q417.83 0.51 415.23-0.77 412.63-2.05 411.2-4.32 409.77-6.59 409.77-9.57L409.77-9.57Q409.77-12.5 411.43-14.7 413.09-16.89 416.39-19.12L416.39-19.12Q416.46-19.17 416.52-19.2 416.59-19.24 416.63-19.26L416.63-19.26Q414.73-21.68 413.8-23.57 412.88-25.46 412.88-27.47L412.88-27.47Q412.88-30.22 413.95-32.14 415.02-34.06 417.03-35.06 419.03-36.06 421.81-36.06L421.81-36.06Q424.4-36.06 426.35-35.03 428.3-34.01 429.4-32.3 430.5-30.59 430.5-28.49L430.5-28.49Q430.5-26.1 429.22-24.35 427.94-22.61 425.42-20.78L425.42-20.78 422.76-18.82 431.06-8.84Q432.06-10.42 432.63-12.35 433.19-14.28 433.19-16.43L433.19-16.43 437.48-16.43Q437.48-13.23 436.53-10.5 435.58-7.76 433.77-5.59L433.77-5.59 438.29-0.12 438.24 0 432.65 0 430.58-2.49Q428.62-1.03 426.25-0.26 423.89 0.51 421.35 0.51ZM421.35-3.25L421.35-3.25Q423.1-3.25 424.81-3.85 426.52-4.44 428.04-5.57L428.04-5.57 419.22-16.19 418.25-15.48Q416.02-13.82 415.3-12.3 414.58-10.79 414.58-9.57L414.58-9.57Q414.58-6.81 416.32-5.03 418.05-3.25 421.35-3.25ZM420.32-21.75L420.32-21.75 423.69-24.07Q425.08-25 425.58-26.09 426.08-27.17 426.08-28.49L426.08-28.49Q426.08-29.98 424.9-31.13 423.71-32.28 421.81-32.28L421.81-32.28Q419.83-32.28 418.76-30.9 417.68-29.52 417.68-27.51L417.68-27.51Q417.68-26.22 418.34-24.82 419-23.41 420.32-21.75ZM468 0L453.84 0 453.84-3.08 457.82-3.76 457.82-31.76 453.84-32.45 453.84-35.55 457.82-35.55 467.75-35.55Q472.46-35.55 475.97-33.3 479.47-31.05 481.42-27.12 483.38-23.19 483.38-18.14L483.38-18.14 483.38-17.38Q483.38-12.45 481.5-8.51 479.62-4.57 476.16-2.28 472.71 0 468 0L468 0ZM462.63-31.76L462.63-3.76 467.75-3.76Q471.12-3.76 473.54-5.6 475.96-7.45 477.26-10.53 478.57-13.62 478.57-17.38L478.57-17.38 478.57-18.19Q478.57-22.07 477.26-25.13 475.96-28.2 473.54-29.98 471.12-31.76 467.75-31.76L467.75-31.76 462.63-31.76ZM498.81 0.51L498.81 0.51Q495.14 0.51 492.43-1.16 489.72-2.83 488.25-5.81 486.77-8.79 486.77-12.7L486.77-12.7 486.77-13.77Q486.77-17.53 488.32-20.5 489.87-23.46 492.45-25.18 495.02-26.9 498.07-26.9L498.07-26.9Q501.64-26.9 504.04-25.44 506.45-23.97 507.67-21.33 508.89-18.68 508.89-15.09L508.89-15.09 508.89-12.08 491.75-12.08 491.68-11.96Q491.72-9.42 492.57-7.46 493.41-5.49 495-4.37 496.58-3.25 498.81-3.25L498.81-3.25Q501.25-3.25 503.09-3.94 504.93-4.64 506.28-5.86L506.28-5.86 508.16-2.73Q506.74-1.37 504.41-0.43 502.08 0.51 498.81 0.51ZM491.85-15.97L491.9-15.84 504.08-15.84 504.08-16.48Q504.08-18.38 503.41-19.89 502.74-21.39 501.41-22.25 500.07-23.12 498.07-23.12L498.07-23.12Q496.46-23.12 495.14-22.18 493.82-21.24 492.97-19.63 492.12-18.02 491.85-15.97L491.85-15.97ZM527.24 0L523.02 0 513.62-22.95 510.89-23.32 510.89-26.42 521.97-26.42 521.97-23.32 518.53-22.83 524.39-7.79 525.07-5.66 525.22-5.66 526-7.79 531.44-22.83 527.9-23.32 527.9-26.42 538.96-26.42 538.96-23.32 536.18-22.95 527.24 0ZM552.93 0.51L552.93 0.51Q549.26 0.51 546.55-1.16 543.84-2.83 542.37-5.81 540.89-8.79 540.89-12.7L540.89-12.7 540.89-13.77Q540.89-17.53 542.44-20.5 543.99-23.46 546.57-25.18 549.14-26.9 552.19-26.9L552.19-26.9Q555.76-26.9 558.16-25.44 560.57-23.97 561.79-21.33 563.01-18.68 563.01-15.09L563.01-15.09 563.01-12.08 545.87-12.08 545.8-11.96Q545.85-9.42 546.69-7.46 547.53-5.49 549.12-4.37 550.7-3.25 552.93-3.25L552.93-3.25Q555.37-3.25 557.21-3.94 559.05-4.64 560.4-5.86L560.4-5.86 562.28-2.73Q560.86-1.37 558.53-0.43 556.2 0.51 552.93 0.51ZM545.97-15.97L546.02-15.84 558.2-15.84 558.2-16.48Q558.2-18.38 557.53-19.89 556.86-21.39 555.53-22.25 554.2-23.12 552.19-23.12L552.19-23.12Q550.58-23.12 549.26-22.18 547.95-21.24 547.09-19.63 546.24-18.02 545.97-15.97L545.97-15.97ZM579.27 0L566.5 0 566.5-3.08 570.48-3.76 570.48-34.3 566.5-34.99 566.5-38.09 575.29-38.09 575.29-3.76 579.27-3.08 579.27 0ZM594.13 0.51L594.13 0.51Q590.47 0.51 587.82-1.21 585.17-2.93 583.73-5.97 582.29-9.01 582.29-12.92L582.29-12.92 582.29-13.45Q582.29-17.36 583.73-20.4 585.17-23.44 587.82-25.17 590.47-26.9 594.08-26.9L594.08-26.9Q597.75-26.9 600.39-25.17 603.04-23.44 604.48-20.41 605.92-17.38 605.92-13.45L605.92-13.45 605.92-12.92Q605.92-8.98 604.48-5.94 603.04-2.91 600.41-1.2 597.77 0.51 594.13 0.51ZM594.13-3.25L594.13-3.25Q596.43-3.25 597.98-4.5 599.53-5.76 600.32-7.95 601.11-10.13 601.11-12.92L601.11-12.92 601.11-13.45Q601.11-16.24 600.32-18.42 599.53-20.61 597.96-21.86 596.4-23.12 594.08-23.12L594.08-23.12Q591.79-23.12 590.23-21.86 588.66-20.61 587.88-18.42 587.1-16.24 587.1-13.45L587.1-13.45 587.1-12.92Q587.1-10.13 587.88-7.95 588.66-5.76 590.24-4.5 591.81-3.25 594.13-3.25ZM621.64 10.16L608.9 10.16 608.9 7.06 612.64 6.37 612.64-22.63 608.66-23.32 608.66-26.42 616.76-26.42 617.2-23.19Q618.52-25 620.41-25.95 622.3-26.9 624.79-26.9L624.79-26.9Q628.06-26.9 630.38-25.13 632.7-23.36 633.92-20.18 635.15-16.99 635.15-12.72L635.15-12.72 635.15-12.21Q635.15-8.4 633.91-5.54 632.68-2.69 630.38-1.09 628.09 0.51 624.87 0.51L624.87 0.51Q622.43 0.51 620.58-0.31 618.74-1.12 617.44-2.73L617.44-2.73 617.44 6.37 621.64 7.06 621.64 10.16ZM623.38-3.25L623.38-3.25Q626.8-3.25 628.55-5.74 630.31-8.23 630.31-12.21L630.31-12.21 630.31-12.72Q630.31-15.75 629.53-18.05 628.75-20.36 627.2-21.68 625.65-23 623.33-23L623.33-23Q621.28-23 619.81-22.07 618.35-21.14 617.44-19.53L617.44-19.53 617.44-6.67Q618.35-5.03 619.8-4.14 621.25-3.25 623.38-3.25ZM651.87 0.51L651.87 0.51Q648.2 0.51 645.49-1.16 642.78-2.83 641.31-5.81 639.83-8.79 639.83-12.7L639.83-12.7 639.83-13.77Q639.83-17.53 641.38-20.5 642.93-23.46 645.51-25.18 648.08-26.9 651.13-26.9L651.13-26.9Q654.7-26.9 657.1-25.44 659.51-23.97 660.73-21.33 661.95-18.68 661.95-15.09L661.95-15.09 661.95-12.08 644.81-12.08 644.74-11.96Q644.79-9.42 645.63-7.46 646.47-5.49 648.06-4.37 649.64-3.25 651.87-3.25L651.87-3.25Q654.31-3.25 656.15-3.94 657.99-4.64 659.34-5.86L659.34-5.86 661.22-2.73Q659.8-1.37 657.47-0.43 655.14 0.51 651.87 0.51ZM644.91-15.97L644.96-15.84 657.14-15.84 657.14-16.48Q657.14-18.38 656.47-19.89 655.8-21.39 654.47-22.25 653.14-23.12 651.13-23.12L651.13-23.12Q649.52-23.12 648.2-22.18 646.89-21.24 646.03-19.63 645.18-18.02 644.91-15.97L644.91-15.97ZM678.4 0L665.63 0 665.63-3.08 669.61-3.76 669.61-22.63 665.63-23.32 665.63-26.42 673.91-26.42 674.32-23.05 674.37-22.58Q675.5-24.61 677.14-25.76 678.79-26.9 680.92-26.9L680.92-26.9Q681.67-26.9 682.47-26.77 683.26-26.64 683.6-26.51L683.6-26.51 682.97-22.05 679.62-22.24Q677.72-22.36 676.42-21.37 675.13-20.39 674.42-18.73L674.42-18.73 674.42-3.76 678.4-3.08 678.4 0Z" opacity="1" transform="matrix(1,0,0,1,0,0)" fill="#ff6699" class="slogan-text-1" data-fill-palette-color="secondary" id="text-1"></path></svg></g></svg></g></svg></g></svg></g><g transform="matrix(1,0,0,1,413.9029640602851,0)"><svg viewBox="0 0 155.971969742734 155.971969742734" height="155.971969742734" width="155.971969742734"><g data-palette-color="#ffffff"><rect width="42.632338396347286" height="155.971969742734" fill="#ffffff" stroke="transparent" data-fill-palette-color="accent" x="0" fill-opacity="1"></rect><rect width="42.632338396347286" height="155.971969742734" fill="#ffffff" stroke="transparent" data-fill-palette-color="accent" x="51.99065658091133" fill-opacity="0.75"></rect><rect width="42.632338396347286" height="155.971969742734" fill="#ffffff" stroke="transparent" data-fill-palette-color="accent" x="103.98131316182265" fill-opacity="0.5"></rect></g></svg></g></svg>